<svg xmlns="http://www.w3.org/2000/svg" viewBox="0 0 32 32" fill="none">
  <rect width="32" height="32" rx="6" fill="#10b981"/>
  <path d="M16 8c-3.5 0-6 2-6 4.5v1c0 0.5 0 1 0.5 1.5h11c0.5-0.5 0.5-1 0.5-1.5v-1c0-2.5-2.5-4.5-6-4.5z" fill="white"/>
  <path d="M10.5 16h11c0.5 0 1 0.5 1 1v6c0 0.5-0.5 1-1 1h-11c-0.5 0-1-0.5-1-1v-6c0-0.5 0.5-1 1-1z" fill="white"/>
  <circle cx="13" cy="11" r="1" fill="white"/>
  <circle cx="16" cy="10" r="1" fill="white"/>
  <circle cx="19" cy="11" r="1" fill="white"/>
</svg>
